<?xml version="1.0" encoding="UTF-8"?>
<svg version="1.1" xmlns="http://www.w3.org/2000/svg" width="1032" height="192">
<path d="M0 0 C7.26462005 5.62261689 13.24510407 12.38044111 16.9140625 20.89453125 C16.9140625 21.88453125 16.9140625 22.87453125 16.9140625 23.89453125 C11.89803816 24.62561172 6.85588787 25.268636 1.9140625 23.89453125 C-1.46707053 21.20499361 -3.87886401 18.30878931 -6.546875 14.94921875 C-10.15431566 10.60919014 -14.00616816 8.22952416 -19.0859375 5.89453125 C-19.96378906 5.48460938 -20.84164062 5.0746875 -21.74609375 4.65234375 C-34.84477727 -0.5727157 -50.2150538 0.54087533 -63.0859375 5.89453125 C-77.15406295 13.06473712 -85.14411392 23.37657866 -90.1875 38.11328125 C-93.86358381 51.44337956 -92.22566993 64.2287005 -85.65234375 76.453125 C-77.15042596 89.70424375 -65.1874321 97.27843187 -50.0859375 100.89453125 C-44.06073972 102.03147573 -37.99387506 102.99890164 -32.0859375 100.89453125 C-26.26166639 96.26809831 -22.81632443 89.18101137 -19.0859375 82.89453125 C-16.1159375 78.60453125 -13.1459375 74.31453125 -10.0859375 69.89453125 C-34.3409375 69.39953125 -34.3409375 69.39953125 -59.0859375 68.89453125 C-59.0859375 64.60453125 -59.0859375 60.31453125 -59.0859375 55.89453125 C-34.3359375 55.89453125 -9.5859375 55.89453125 15.9140625 55.89453125 C14.92830592 60.82331415 13.45066981 63.35259156 10.5390625 67.20703125 C9.62097855 68.45599067 8.70436533 69.70603225 7.7890625 70.95703125 C7.07556641 71.92769531 7.07556641 71.92769531 6.34765625 72.91796875 C4.01319074 76.13660512 1.77813087 79.42165788 -0.4609375 82.70703125 C-4.44334361 88.52598733 -8.46371395 94.31672492 -12.5234375 100.08203125 C-13.01956543 100.78884033 -13.51569336 101.49564941 -14.02685547 102.22387695 C-14.95624982 103.5405454 -15.89460458 104.85095048 -16.84326172 106.15380859 C-17.91048527 107.64876024 -18.89931078 109.19913216 -19.87109375 110.7578125 C-25.5351042 116.22203422 -35.29677286 115.29213285 -42.70581055 115.25805664 C-60.47912411 114.87134399 -77.4439212 107.38047327 -90.0859375 94.89453125 C-101.56955437 82.10265423 -107.73752287 66.68232197 -107.26953125 49.44921875 C-106.10041802 33.18113259 -99.59447806 16.0724481 -87.44140625 4.765625 C-61.56984482 -15.78574801 -27.76103602 -18.94075749 0 0 Z " fill="#000000" transform="translate(535.0859375,77.10546875)"/>
<path d="M0 0 C1.03543945 0.05027344 1.03543945 0.05027344 2.09179688 0.1015625 C2.79369141 0.11960937 3.49558594 0.13765625 4.21875 0.15625 C5.94785123 0.20330037 7.67624893 0.27504377 9.40429688 0.3515625 C8.89597564 5.13463403 6.62433477 8.4024235 3.92382812 12.234375 C3.24812019 13.21674637 3.24812019 13.21674637 2.5587616 14.21896362 C1.11916165 16.3102923 -0.33102276 18.39395395 -1.78320312 20.4765625 C-10.07359207 32.39452317 -10.07359207 32.39452317 -17.32739258 44.96044922 C-19.22914742 48.54577875 -21.40474317 51.93824061 -23.59570312 55.3515625 C-33.93224943 71.57388003 -33.93224943 71.57388003 -35.59570312 90.3515625 C-33.78182829 97.88023577 -29.42000071 106.33018516 -22.69335938 110.54296875 C-20.64779247 111.47992113 -20.64779247 111.47992113 -17.59570312 112.3515625 C-16.60570312 112.6815625 -15.61570313 113.0115625 -14.59570312 113.3515625 C-4.76045358 114.18251849 1.91127236 112.84712356 10.15429688 107.6015625 C16.64896664 101.10689273 19.41464323 93.72966668 19.77929688 84.6015625 C19.60804649 76.0497464 17.13773454 68.14435455 11.17773438 61.8515625 C4.23355366 55.97807044 -2.60036933 54.04137858 -11.59570312 54.3515625 C-13.93394905 54.64848262 -16.26948002 54.97177097 -18.59570312 55.3515625 C-16.48062046 49.42292169 -13.17415479 44.66885471 -8.59570312 40.3515625 C-4.9769756 39.49288139 -4.00333277 39.4839583 -0.59570312 40.3515625 C0.43167969 40.58875 1.4590625 40.8259375 2.51757812 41.0703125 C9.62566709 42.97236168 14.97642925 45.40403714 20.40429688 50.3515625 C21.00757812 50.84140625 21.61085938 51.33125 22.23242188 51.8359375 C29.30891625 58.0509456 33.86525854 67.86855536 34.54101562 77.24951172 C35.29609841 93.16796365 31.99878304 105.13449737 21.40429688 117.3515625 C18.92382812 119.265625 18.92382812 119.265625 16.21679688 120.9765625 C15.33636719 121.54632813 14.4559375 122.11609375 13.54882812 122.703125 C6.48459589 126.40636227 -0.0180501 127.89158289 -7.97070312 127.7890625 C-8.80069824 127.78148926 -9.63069336 127.77391602 -10.48583984 127.76611328 C-22.67432883 127.44003966 -32.88802116 122.51234419 -41.34570312 113.7265625 C-48.32584534 105.31792606 -50.78439344 95.11315192 -50.97070312 84.4765625 C-51.00808594 83.70570313 -51.04546875 82.93484375 -51.08398438 82.140625 C-51.30405681 67.07788921 -42.81930731 55.35044184 -34.59570312 43.5390625 C-32.6313478 40.68248777 -30.67529481 37.82029273 -28.72070312 34.95703125 C-28.25622772 34.27979507 -27.79175232 33.6025589 -27.3132019 32.90480042 C-24.51431093 28.79715903 -21.96942227 24.64270234 -19.64355469 20.24584961 C-17.84525887 16.99492295 -15.66613531 14.03008708 -13.47070312 11.0390625 C-13.04144531 10.44544922 -12.6121875 9.85183594 -12.16992188 9.24023438 C-10.98543412 7.60564128 -9.79094576 5.97830798 -8.59570312 4.3515625 C-8.15871094 3.55878906 -7.72171875 2.76601562 -7.27148438 1.94921875 C-5.00083487 -0.21557297 -3.04141549 -0.05877131 0 0 Z " fill="#FCB812" transform="translate(50.595703125,64.6484375)"/>
<path d="M0 0 C23.43 0 46.86 0 71 0 C71 4.29 71 8.58 71 13 C52.19 13 33.38 13 14 13 C14 27.52 14 42.04 14 57 C24.89 57 35.78 57 47 57 C47 61.29 47 65.58 47 70 C36.11 70 25.22 70 14 70 C14 84.52 14 99.04 14 114 C18.03089844 113.98839844 22.06179688 113.97679687 26.21484375 113.96484375 C29.42077859 113.95841672 32.62671163 113.95299253 35.83264923 113.94824982 C39.22137231 113.94296031 42.61007056 113.9358872 45.9987793 113.92456055 C49.88329777 113.91165733 53.76780597 113.90677076 57.65234375 113.90234375 C58.87211411 113.89718246 60.09188446 113.89202118 61.34861755 113.88670349 C63.03024742 113.88659019 63.03024742 113.88659019 64.74584961 113.88647461 C65.73846298 113.884254 66.73107635 113.88203339 67.75376892 113.87974548 C70 114 70 114 71 115 C71 118.96 71 122.92 71 127 C47.57 127 24.14 127 0 127 C0 85.09 0 43.18 0 0 Z " fill="#000000" transform="translate(880,65)"/>
<path d="M0 0 C23.1 0 46.2 0 70 0 C70 4.29 70 8.58 70 13 C51.52 13 33.04 13 14 13 C14 27.52 14 42.04 14 57 C24.89 57 35.78 57 47 57 C47 61.29 47 65.58 47 70 C36.11 70 25.22 70 14 70 C14 84.52 14 99.04 14 114 C32.48 114 50.96 114 70 114 C70 118.29 70 122.58 70 127 C46.9 127 23.8 127 0 127 C0 85.09 0 43.18 0 0 Z " fill="#000000" transform="translate(750,65)"/>
<path d="M0 0 C23.1 0 46.2 0 70 0 C70 4.29 70 8.58 70 13 C51.52 13 33.04 13 14 13 C14 27.52 14 42.04 14 57 C24.89 57 35.78 57 47 57 C47 61.29 47 65.58 47 70 C36.11 70 25.22 70 14 70 C14 84.52 14 99.04 14 114 C32.48 114 50.96 114 70 114 C70 118.29 70 122.58 70 127 C46.9 127 23.8 127 0 127 C0 85.09 0 43.18 0 0 Z " fill="#000000" transform="translate(298,65)"/>
<path d="M0 0 C6.38221776 -0.07512117 12.76416851 -0.12905297 19.14672852 -0.16479492 C21.31018568 -0.17972196 23.47361345 -0.20007093 25.63696289 -0.22631836 C50.60529738 -0.52128826 71.6083676 1.75082629 90.8125 19.3125 C103.05878047 32.23101066 107.74597096 51.09043733 107.30859375 68.36328125 C106.52917532 84.00662959 99.65846419 98.21763565 88.859375 109.42578125 C69.60035255 126.76416348 46.29314431 127.33141169 21.625 127.125 C19.52083761 127.1149462 17.41667055 127.10582461 15.3125 127.09765625 C10.20821595 127.07584197 5.10416085 127.0414454 0 127 C0 122.71 0 118.42 0 114 C1.27939453 113.98541748 2.55878906 113.97083496 3.87695312 113.95581055 C8.70061875 113.89709627 13.52385251 113.81987978 18.34716797 113.73754883 C20.42033796 113.70463882 22.49359027 113.67650581 24.56689453 113.65356445 C54.05310133 113.33471758 54.05310133 113.33471758 79.1875 99.109375 C89.29276277 87.34893988 92.99908812 73.20834136 92 58 C90.08851057 45.46192526 84.62831685 33.44503885 75 25 C58.26786416 12.84194662 38.50868757 13.87814067 18.75 13.4375 C16.92577351 13.39420502 15.10155465 13.35058767 13.27734375 13.30664062 C8.85164153 13.20071309 4.42585929 13.09913874 0 13 C0 8.71 0 4.42 0 0 Z " fill="#000000" transform="translate(137,65)"/>
<path d="M0 0 C5.8491903 -0.05004902 11.69825148 -0.08602145 17.54760742 -0.10986328 C19.53070247 -0.11981971 21.51378325 -0.13338972 23.49682617 -0.15087891 C62.56386469 -0.4863877 62.56386469 -0.4863877 76 12 C85.20740169 21.47100828 87.65222521 32.12144446 87.54101562 44.98510742 C87.15420825 54.84968226 83.879329 63.05316648 77.02734375 70.25 C69.65849993 76.61077462 61.32267876 79.78783894 52 82 C52.66 82.78375 53.32 83.5675 54 84.375 C56 87 56 87 56 89 C56.60199219 89.2563623 57.20398438 89.51272461 57.82421875 89.77685547 C60.23639328 91.13289164 61.2408098 92.31525412 62.8125 94.5703125 C63.32530518 95.29476562 63.83811035 96.01921875 64.36645508 96.765625 C64.9055249 97.54421875 65.44459473 98.3228125 66 99.125 C67.14821357 100.75368107 68.29798988 102.38126139 69.44921875 104.0078125 C70.03364746 104.83571289 70.61807617 105.66361328 71.22021484 106.51660156 C74.50769329 111.10373885 77.94477794 115.57992627 81.39257812 120.04736328 C85 124.78424594 85 124.78424594 85 127 C70.43820189 128.65512975 70.43820189 128.65512975 65.32421875 125.18359375 C63.4311025 122.84839386 61.76905917 120.4752499 60.203125 117.91015625 C58.27584231 114.85028211 56.1268951 111.95512642 53.99902344 109.03271484 C52.85519592 107.45811588 51.72250808 105.87534862 50.60253906 104.28369141 C47.66139802 100.12356053 44.6112 96.60583417 41 93 C38.1444161 89.52264169 35.41503121 85.95320896 32.6875 82.375 C31.57665039 80.94414062 31.57665039 80.94414062 30.44335938 79.484375 C29.39438477 78.11152344 29.39438477 78.11152344 28.32421875 76.7109375 C27.68572998 75.87868652 27.04724121 75.04643555 26.3894043 74.18896484 C25 72 25 72 25 69 C25.63389648 68.9906543 26.26779297 68.98130859 26.92089844 68.97167969 C47.79256575 69.21183093 47.79256575 69.21183093 65.6015625 59.64453125 C70.98245833 53.316718 72.39552975 47.0712784 72.265625 38.94140625 C71.61465317 31.7328505 69.02899699 26.56012299 63.8125 21.5625 C51.38917209 11.52671719 33.38004526 13.78432458 18.25 13.4375 C16.47395047 13.3942015 14.69790869 13.35058406 12.921875 13.30664062 C8.61466371 13.20075377 4.30737095 13.0991703 0 13 C0 8.71 0 4.42 0 0 Z " fill="#000000" transform="translate(606,65)"/>
<path d="M0 0 C1.12486816 0.01027222 1.12486816 0.01027222 2.27246094 0.02075195 C9.5210277 0.23176017 13.61865795 2.02890196 19.3125 6.6875 C25.19447719 13.87658324 26.42490028 20.29658387 26.01171875 29.51171875 C25.23466872 36.30246028 22.77678372 41.69251654 17.75 46.375 C9.60433824 51.64572231 1.61149753 52.82577585 -7.99609375 50.93359375 C-14.55808918 48.99708582 -19.17995371 45.8293272 -22.75 39.875 C-26.40081106 32.43816266 -26.94736006 23.06301909 -24.375 15.125 C-21.48243986 8.71519537 -16.98307862 3.61485416 -10.39111328 1.0065918 C-6.93959976 0.0011584 -3.5745153 -0.04997924 0 0 Z M-8.1875 14.9375 C-11.32432923 19.00743666 -11.7161112 23.41475917 -11.4375 28.4375 C-10.46601509 32.80182236 -8.9658009 36.55914927 -5.4375 39.4375 C0.08855265 40.69896415 0.08855265 40.69896415 5.375 39.25 C9.04041136 36.21294487 11.26670313 33.32151951 11.765625 28.45703125 C11.87907397 23.11547568 11.63769555 17.98622676 8.5625 13.4375 C2.31855201 9.13033217 -2.7418684 9.98692582 -8.1875 14.9375 Z " fill="#FCB812" transform="translate(1006.4375,-0.4375)"/>
<path d="M0 0 C0.99 0 1.98 0 3 0 C4.25664978 2.90600261 5 4.79604584 5 8 C5.66 8 6.32 8 7 8 C7.66 5.36 8.32 2.72 9 0 C10.32 0 11.64 0 13 0 C13 4.95 13 9.9 13 15 C11.68 14.67 10.36 14.34 9 14 C6.81296615 14.37907282 6.81296615 14.37907282 5 15 C4.34 13.35 3.68 11.7 3 10 C2.67 11.65 2.34 13.3 2 15 C1.34 15 0.68 15 0 15 C0 10.05 0 5.1 0 0 Z " fill="#000000" transform="translate(937,41)"/>
<path d="M0 0 C3.63 0 7.26 0 11 0 C11 0.99 11 1.98 11 3 C9.68 3 8.36 3 7 3 C7 6.96 7 10.92 7 15 C5.68 15 4.36 15 3 15 C3 11.04 3 7.08 3 3 C2.01 3 1.02 3 0 3 C0 2.01 0 1.02 0 0 Z " fill="#000000" transform="translate(925,41)"/>
</svg>
