<svg width="20" height="20" viewBox="0 0 20 20" fill="none" xmlns="http://www.w3.org/2000/svg">
<path d="M18.6616 10.3872C18.3192 10.5242 17.9082 10.6612 17.5657 10.7297C17.7712 10.7297 17.9767 10.3872 18.1137 10.2502C18.2507 10.0448 18.3877 9.83928 18.4562 9.56531V9.49682H18.3877C17.9767 9.70229 17.5657 9.90777 17.0863 9.97627C17.0178 9.97627 17.0178 9.97627 17.0178 9.97627C16.9493 9.90777 16.9493 9.90777 16.8808 9.83928C16.6753 9.70229 16.4698 9.56531 16.2644 9.42832C15.9904 9.29134 15.6479 9.22284 15.3055 9.29134C14.963 9.29134 14.689 9.42832 14.4151 9.56531C14.1411 9.70229 13.8671 9.90777 13.6616 10.1817C13.4562 10.4557 13.3192 10.7297 13.2507 11.0722C13.1822 11.4146 13.1822 11.6886 13.2507 12.0311C13.2507 12.0996 13.2507 12.0996 13.1822 12.0996C11.4014 11.8256 9.8945 11.2091 8.66163 9.83928C8.59313 9.77079 8.59314 9.77079 8.52464 9.83928C7.9767 10.6612 8.25067 11.8941 8.9356 12.5105C9.00409 12.579 9.14108 12.6475 9.20957 12.7845C9.14108 12.7845 8.73012 12.716 8.31916 12.5105C8.25067 12.5105 8.25067 12.5105 8.25067 12.579C8.25067 12.6475 8.25067 12.716 8.25067 12.853C8.31916 13.6749 8.9356 14.4283 9.68902 14.7023C9.75752 14.7708 9.8945 14.7708 9.963 14.7708C9.75752 14.8393 9.62053 14.8393 9.14108 14.7708C9.07259 14.7708 9.07258 14.7708 9.07258 14.8393C9.41505 15.8667 10.237 16.1406 10.8534 16.3461C10.9219 16.3461 10.9904 16.3461 11.1274 16.3461C10.9219 16.6201 10.237 16.8941 9.89451 16.9626C9.27807 17.168 8.66163 17.2365 8.04519 17.168C7.97669 17.168 7.9082 17.168 7.9082 17.168V17.2365C8.04519 17.305 8.18217 17.3735 8.31916 17.442C8.73012 17.6475 9.14108 17.853 9.55204 17.9215C11.8123 18.5379 14.2781 18.0585 15.9904 16.4146C17.2918 15.1133 17.7712 13.3324 17.7712 11.4831C17.7712 11.4146 17.8397 11.3461 17.9082 11.3461C18.2507 11.0722 18.5246 10.7982 18.7986 10.4557C18.6616 10.5242 18.6616 10.4557 18.6616 10.3872Z" fill="#65558F"/>
<g clip-path="url(#clip0_974_4239)">
<path d="M4.65597 6.4342H0.64094C0.462746 6.4342 0.318359 6.57866 0.318359 6.75678V19.6554C0.318359 19.8336 0.462746 19.9779 0.64094 19.9779H4.65597C4.83417 19.9779 4.97855 19.8336 4.97855 19.6554V6.75678C4.97855 6.57866 4.83417 6.4342 4.65597 6.4342Z" fill="white"/>
<path d="M2.64942 0.0220032C1.18852 0.0220032 0 1.20923 0 2.66852C0 4.12845 1.18852 5.31613 2.64942 5.31613C4.10916 5.31613 5.29671 4.12839 5.29671 2.66852C5.29677 1.20923 4.10916 0.0220032 2.64942 0.0220032Z" fill="white"/>
<path d="M14.8675 6.11362C13.255 6.11362 12.0629 6.80684 11.3399 7.59452V6.75678C11.3399 6.57865 11.1955 6.4342 11.0173 6.4342H7.17219C6.994 6.4342 6.84961 6.57865 6.84961 6.75678V19.6554C6.84961 19.8336 6.994 19.9779 7.17219 19.9779H11.1784C11.3566 19.9779 11.501 19.8336 11.501 19.6554V13.2736C11.501 11.123 12.0852 10.2852 13.5843 10.2852C15.2169 10.2852 15.3466 11.6283 15.3466 13.3842V19.6554C15.3466 19.8336 15.491 19.978 15.6692 19.978H19.677C19.8552 19.978 19.9995 19.8336 19.9995 19.6554V12.5803C19.9995 9.38258 19.3898 6.11362 14.8675 6.11362Z" fill="white"/>
</g>
<defs>
<clipPath id="clip0_974_4239">
<rect width="20" height="20" fill="white"/>
</clipPath>
</defs>
</svg>
