<svg width="201" height="83" viewBox="0 0 201 83" fill="none" xmlns="http://www.w3.org/2000/svg">
<path d="M47.359 7.02542H195.407C197.943 7.02542 200 9.08195 200 11.6188V71.3811C200 73.918 197.943 75.9745 195.407 75.9745H47.359C44.8222 75.9745 42.7656 73.918 42.7656 71.3811V11.6188C42.7656 9.08195 44.8222 7.02542 47.359 7.02542Z" fill="#3C434B" stroke="#3C434B"/>
<path d="M105.24 27.4151V41.2215H102.632V27.4151H97.8311V25.1061H110.045V27.4151H105.244H105.24ZM115.138 41.5C114.306 41.5 113.546 41.354 112.853 41.0619C112.174 40.7699 111.597 40.3557 111.121 39.8158C110.646 39.2623 110.276 38.6001 110.014 37.8293C109.753 37.045 109.621 36.1757 109.621 35.2215C109.621 34.2674 109.753 33.4049 110.014 32.6341C110.276 31.8497 110.646 31.1876 111.121 30.6477C111.597 30.0942 112.174 29.6698 112.853 29.3777C113.546 29.0857 114.306 28.9397 115.138 28.9397C115.97 28.9397 116.724 29.0857 117.4 29.3777C118.093 29.6698 118.677 30.0942 119.155 30.6477C119.631 31.1876 120.001 31.8497 120.262 32.6341C120.524 33.4049 120.656 34.2674 120.656 35.2215C120.656 36.1757 120.527 37.045 120.262 37.8293C120.001 38.6001 119.631 39.2623 119.155 39.8158C118.68 40.3557 118.093 40.7699 117.4 41.0619C116.724 41.354 115.967 41.5 115.138 41.5ZM115.138 39.4219C116.001 39.4219 116.694 39.1604 117.216 38.6375C117.739 38.0976 118.001 37.2996 118.001 36.2368V34.2063C118.001 33.1434 117.739 32.3523 117.216 31.8293C116.694 31.2894 116.001 31.0212 115.138 31.0212C114.276 31.0212 113.583 31.2894 113.06 31.8293C112.537 32.3523 112.276 33.1468 112.276 34.2063V36.2368C112.276 37.2996 112.537 38.101 113.06 38.6375C113.583 39.1604 114.276 39.4219 115.138 39.4219ZM127.709 41.5C126.877 41.5 126.116 41.354 125.424 41.0619C124.748 40.7699 124.171 40.3557 123.692 39.8158C123.213 39.2623 122.846 38.6001 122.585 37.8293C122.323 37.045 122.191 36.1757 122.191 35.2215C122.191 34.2674 122.323 33.4049 122.585 32.6341C122.846 31.8497 123.216 31.1876 123.692 30.6477C124.171 30.0942 124.748 29.6698 125.424 29.3777C126.116 29.0857 126.877 28.9397 127.709 28.9397C128.541 28.9397 129.295 29.0857 129.97 29.3777C130.663 29.6698 131.247 30.0942 131.726 30.6477C132.201 31.1876 132.571 31.8497 132.833 32.6341C133.094 33.4049 133.227 34.2674 133.227 35.2215C133.227 36.1757 133.094 37.045 132.833 37.8293C132.571 38.6001 132.201 39.2623 131.726 39.8158C131.247 40.3557 130.663 40.7699 129.97 41.0619C129.295 41.354 128.537 41.5 127.709 41.5ZM127.709 39.4219C128.571 39.4219 129.264 39.1604 129.787 38.6375C130.31 38.0976 130.571 37.2996 130.571 36.2368V34.2063C130.571 33.1434 130.31 32.3523 129.787 31.8293C129.264 31.2894 128.571 31.0212 127.709 31.0212C126.846 31.0212 126.154 31.2894 125.631 31.8293C125.108 32.3523 124.846 33.1468 124.846 34.2063V36.2368C124.846 37.2996 125.108 38.101 125.631 38.6375C126.154 39.1604 126.846 39.4219 127.709 39.4219ZM138.133 41.2215C137.271 41.2215 136.626 41.0076 136.194 40.5764C135.78 40.1316 135.57 39.5136 135.57 38.7292V24.1349H138.086V39.1672H139.75V41.2215H138.133ZM150.351 25.1061V36.8344C150.351 37.5441 150.235 38.1825 150.004 38.7495C149.773 39.32 149.444 39.8124 149.013 40.2266C148.598 40.6273 148.082 40.9431 147.464 41.174C146.863 41.3913 146.194 41.4966 145.454 41.4966C144.052 41.4966 142.945 41.1265 142.13 40.3896C141.329 39.6358 140.823 38.6579 140.605 37.4558L143.006 36.9261C143.145 37.6188 143.407 38.1655 143.79 38.5662C144.191 38.9669 144.744 39.1672 145.454 39.1672C146.164 39.1672 146.7 38.9533 147.118 38.522C147.532 38.0908 147.743 37.4355 147.743 36.5594V27.2759H142.48V25.1061H150.354H150.351ZM158.3 41.5C157.437 41.5 156.666 41.354 155.991 41.0619C155.312 40.7699 154.734 40.3557 154.259 39.8158C153.78 39.2623 153.413 38.6001 153.152 37.8293C152.904 37.045 152.782 36.1757 152.782 35.2215C152.782 34.2674 152.904 33.4049 153.152 32.6341C153.413 31.8497 153.784 31.1876 154.259 30.6477C154.734 30.0942 155.312 29.6698 155.991 29.3777C156.666 29.0857 157.437 28.9397 158.3 28.9397C159.162 28.9397 159.946 29.0925 160.609 29.4015C161.284 29.7105 161.848 30.1417 162.293 30.6952C162.738 31.2351 163.07 31.8667 163.284 32.59C163.515 33.3132 163.631 34.0908 163.631 34.9227V35.8701H155.386V36.264C155.386 37.1876 155.654 37.9482 156.194 38.5492C156.748 39.1332 157.532 39.4253 158.551 39.4253C159.291 39.4253 159.913 39.2623 160.422 38.9397C160.931 38.6171 161.359 38.1791 161.716 37.6222L163.193 39.0755C162.748 39.8158 162.099 40.4066 161.254 40.8548C160.408 41.2861 159.42 41.5 158.3 41.5ZM158.3 30.9024C157.868 30.9024 157.468 30.9804 157.098 31.1333C156.744 31.2861 156.435 31.5034 156.174 31.7784C155.926 32.0569 155.736 32.3862 155.597 32.7699C155.458 33.1536 155.39 33.5781 155.39 34.0399V34.2029H160.979V33.972C160.979 33.0484 160.741 32.3081 160.262 31.7546C159.784 31.1842 159.132 30.899 158.3 30.899V30.9024ZM169.284 41.2249C168.408 41.2249 167.746 41.0008 167.298 40.556C166.85 40.0942 166.629 39.449 166.629 38.6171V31.2759H164.758V29.2215H165.773C166.188 29.2215 166.473 29.1299 166.629 28.9431C166.799 28.7597 166.884 28.4575 166.884 28.0433V25.9414H169.145V29.2215H171.661V31.2759H169.145V39.174H171.478V41.2283H169.284V41.2249Z" fill="#CFD3D8"/>
<path d="M100.267 57.7988V48.3183H103.812C104.719 48.3183 105.405 48.573 105.877 49.0789C106.356 49.5849 106.597 50.2844 106.597 51.1706C106.597 52.0569 106.356 52.7564 105.877 53.2623C105.405 53.7682 104.719 54.0229 103.812 54.0229H101.789V57.7988H100.267ZM101.789 52.7598H103.581C104.522 52.7598 104.994 52.3251 104.994 51.4559V50.8718C104.994 50.0127 104.522 49.5815 103.581 49.5815H101.789V52.7598ZM116.396 57.7988L115.677 55.2725H112.661L111.941 57.7988H110.393L113.164 48.3183H115.242L118.013 57.7988H116.396ZM114.223 49.8531H114.115L112.946 54.0093H115.391L114.223 49.8531ZM123.768 57.7988H122.261V48.3183H125.806C126.712 48.3183 127.398 48.573 127.87 49.0789C128.349 49.5849 128.59 50.2844 128.59 51.1706C128.59 51.8939 128.413 52.4915 128.06 52.9635C127.707 53.4355 127.201 53.7241 126.539 53.8328L128.726 57.7988H127.042L125.031 53.9686H123.768V57.7988ZM125.588 52.7462C126.529 52.7462 127.001 52.3149 127.001 51.4559V50.8718C127.001 50.0127 126.529 49.5815 125.588 49.5815H123.768V52.7462H125.588ZM136.95 49.5951V57.7988H135.429V49.5951H132.454V48.3183H139.924V49.5951H136.95ZM145.541 50.5051H145.418V57.7988H144.087V48.3183H146.043L148.828 55.612H148.95V48.3183H150.281V57.7988H148.325L145.541 50.5051ZM155.272 57.7988V48.3183H161.208V49.5951H156.794V52.3523H161.045V53.629H156.794V56.5221H161.208V57.7988H155.272ZM167.748 57.7988H166.24V48.3183H169.785C170.692 48.3183 171.378 48.573 171.85 49.0789C172.328 49.5849 172.57 50.2844 172.57 51.1706C172.57 51.8939 172.393 52.4915 172.04 52.9635C171.687 53.4355 171.181 53.7241 170.519 53.8328L172.705 57.7988H171.021L169.011 53.9686H167.748V57.7988ZM169.568 52.7462C170.508 52.7462 170.98 52.3149 170.98 51.4559V50.8718C170.98 50.0127 170.508 49.5815 169.568 49.5815H167.748V52.7462H169.568Z" fill="#858C94"/>
<path d="M41.9261 0.0738525C64.8056 0.0738525 83.3523 18.6205 83.3523 41.5C83.3523 64.3794 64.8056 82.9261 41.9261 82.9261C19.0467 82.9261 0.5 64.3794 0.5 41.5C0.5 18.6205 19.0467 0.0738525 41.9261 0.0738525Z" fill="#3E63DD"/>
<mask id="mask0_28_3115" style="mask-type:luminance" maskUnits="userSpaceOnUse" x="24" y="24" width="35" height="35">
<path d="M58.9041 24.5221H24.9482V58.478H58.9041V24.5221Z" fill="white"/>
</mask>
<g mask="url(#mask0_28_3115)">
<path d="M35.1113 53.3269C35.3082 53.5239 35.332 53.8397 35.1554 54.0604C32.7615 57.0349 29.6851 57.9925 25.9194 58.4679C25.366 58.5358 24.8872 58.0604 24.9585 57.5069C25.4305 53.7446 26.3914 50.6648 29.366 48.2709C29.5867 48.0977 29.9025 48.1147 30.0994 48.3151L35.1113 53.3269Z" fill="white"/>
<path d="M58.8565 25.2217C58.8395 24.8652 58.5543 24.5833 58.2046 24.5697C57.3047 24.5256 56.4219 24.4984 55.6069 24.546C52.7682 24.7022 50.3234 25.3032 47.8344 26.3592C43.2131 28.4679 39.6613 31.2794 36.8158 34.7972C36.5781 35.0315 36.3438 35.147 36.1061 35.147C35.393 35.147 34.3642 35.0146 33.2945 35.0146C32.5849 35.0146 32.2148 35.0248 31.4813 35.147C29.702 35.5001 28.7003 36.1759 27.4949 37.5001C26.8395 38.2166 26.303 39.1402 25.8378 40.0231C25.7631 40.1691 25.281 41.2658 24.9788 41.9619C24.8599 42.2302 25.0569 42.5324 25.3523 42.529C27.5153 42.529 29.6749 42.529 31.8378 42.529C32.0755 42.529 32.3132 42.6478 32.5475 42.8821C33.9567 44.2743 35.23 45.585 36.5407 46.8787C37.8344 48.1894 39.1417 49.4594 40.5373 50.8686C40.7716 51.1062 40.8871 51.3439 40.8905 51.5782C40.8905 53.7378 40.8905 55.9008 40.8905 58.0638C40.8905 58.3592 41.1893 58.5562 41.4609 58.4407C42.1536 58.1385 43.2504 57.6529 43.3964 57.5782C44.2793 57.1164 45.2029 56.5799 45.9227 55.9212C47.2436 54.7158 47.9193 53.7107 48.2691 51.9348C48.3981 51.2047 48.4049 50.8346 48.4049 50.1215C48.4049 49.0553 48.2691 48.0264 48.2691 47.3134C48.2691 47.0757 48.3879 46.838 48.6222 46.6037C52.14 43.7616 54.955 40.2064 57.0603 35.585C58.1197 33.0961 58.7207 30.6546 58.8769 27.8125C58.921 27.001 58.8939 26.1147 58.8531 25.2183L58.8565 25.2217ZM51.1825 37.0146C49.865 38.3321 47.7326 38.3321 46.4117 37.0146C45.0942 35.6937 45.0942 33.5579 46.4117 32.2404C47.7326 30.9195 49.865 30.9195 51.1825 32.2404C52.5068 33.5579 52.5068 35.6937 51.1825 37.0146Z" fill="white"/>
</g>
</svg>
